<svg xmlns:dc="http://purl.org/dc/elements/1.1/" xmlns:cc="http://creativecommons.org/ns#" xmlns:rdf="http://www.w3.org/1999/02/22-rdf-syntax-ns#" xmlns:svg="http://www.w3.org/2000/svg" xmlns="http://www.w3.org/2000/svg" version="1.1" viewBox="0 0 32 40" x="0px" y="0px"><g><path d="M 14.492188,20.477345 A 0.50005,0.50005 0 0 1 14.039062,19.78008 c 0.161243,-0.386979 0.432431,-0.718625 0.78125,-0.951172 0.348821,-0.232547 0.76046,-0.357422 1.179688,-0.357422 0.419223,0 0.830862,0.124864 1.179688,0.357422 0.348819,0.232547 0.620007,0.564193 0.78125,0.951172 a 0.50005,0.50005 0 1 1 -0.921876,0.382812 C 16.955303,19.961869 16.806199,19.781738 16.625,19.660939 16.443808,19.540141 16.217779,19.471486 16,19.471486 c -0.217774,0 -0.443802,0.06865 -0.625,0.189453 -0.181199,0.120799 -0.330303,0.30093 -0.414062,0.501953 a 0.50005,0.50005 0 0 1 -0.46875,0.314453 z" style="color:#000000;font-style:normal;font-variant:normal;font-weight:normal;font-stretch:normal;font-size:medium;line-height:normal;font-family:sans-serif;font-variant-ligatures:normal;font-variant-position:normal;font-variant-caps:normal;font-variant-numeric:normal;font-variant-alternates:normal;font-feature-settings:normal;text-indent:0;text-align:start;text-decoration:none;text-decoration-line:none;text-decoration-style:solid;text-decoration-color:#000000;letter-spacing:normal;word-spacing:normal;text-transform:none;writing-mode:lr-tb;direction:ltr;text-orientation:mixed;dominant-baseline:auto;baseline-shift:baseline;text-anchor:start;white-space:normal;shape-padding:0;clip-rule:nonzero;display:inline;overflow:visible;visibility:visible;opacity:1;isolation:auto;mix-blend-mode:normal;color-interpolation:sRGB;color-interpolation-filters:linearRGB;solid-color:#000000;solid-opacity:1;vector-effect:none;fill:#000000;fill-opacity:1;fill-rule:nonzero;stroke:none;stroke-width:1px;stroke-linecap:round;stroke-linejoin:miter;stroke-miterlimit:4;stroke-dasharray:none;stroke-dashoffset:0;stroke-opacity:1;color-rendering:auto;image-rendering:auto;shape-rendering:auto;text-rendering:auto;enable-background:accumulate"/><path d="m 15.990234,7.1054688 c -3.328982,0.00379 -6.3345187,1.8948494 -7.8554684,4.8339842 -3.394932,0.01682 -6.1543056,2.778929 -6.1542968,6.177735 -8.8e-6,3.409186 2.7744072,6.183602 6.1835937,6.183593 1.0600233,-1.93e-4 2.0708585,-0.356793 2.9921875,-0.873047 1.441626,0.937344 3.110915,1.466822 4.833984,1.466797 a 0.50005,0.50005 0 0 0 0.002,0 c 1.704276,-0.0034 3.350122,-0.534664 4.779296,-1.455078 0.934444,0.539262 1.980071,0.859095 3.0625,0.861328 a 0.50005,0.50005 0 0 0 0.002,0 c 3.409186,9e-6 6.183602,-2.774407 6.183593,-6.183593 9e-6,-3.405727 -2.769391,-6.176026 -6.173828,-6.181641 C 22.324421,8.9973084 19.318418,7.1093083 15.990234,7.1054688 Z m 0,1 c 3.061983,0.00353 5.842424,1.7756671 7.140625,4.5488282 a 0.50005,0.50005 0 0 0 0.480469,0.287109 c 0.07523,-0.004 0.14928,-0.0071 0.22461,-0.0078 2.868744,-8e-6 5.183601,2.314849 5.183593,5.183594 8e-6,2.868078 -2.31382,5.182525 -5.18164,5.183593 -0.993533,-0.0021 -1.96601,-0.28936 -2.800782,-0.828125 a 0.50005,0.50005 0 0 0 -0.55664,0.0098 c -1.318029,0.91624 -2.885061,1.408539 -4.490235,1.412109 -1.602411,2.4e-5 -3.167611,-0.488103 -4.486328,-1.398437 a 0.50005,0.50005 0 0 0 -0.552734,-0.0098 c -0.832729,0.531458 -1.7992407,0.814273 -2.7871095,0.814453 -2.8687446,8e-6 -5.1836011,-2.314849 -5.1835937,-5.183593 -7.4e-6,-2.868078 2.3138201,-5.182526 5.1816406,-5.183594 0.065588,0.0022 0.1318069,0.0051 0.1972656,0.0098 A 0.50005,0.50005 0 0 0 8.8476562,12.65625 C 10.145069,9.8810483 12.926738,8.1089596 15.990234,8.1054688 Z" style="color:#000000;font-style:normal;font-variant:normal;font-weight:normal;font-stretch:normal;font-size:medium;line-height:normal;font-family:sans-serif;font-variant-ligatures:normal;font-variant-position:normal;font-variant-caps:normal;font-variant-numeric:normal;font-variant-alternates:normal;font-feature-settings:normal;text-indent:0;text-align:start;text-decoration:none;text-decoration-line:none;text-decoration-style:solid;text-decoration-color:#000000;letter-spacing:normal;word-spacing:normal;text-transform:none;writing-mode:lr-tb;direction:ltr;text-orientation:mixed;dominant-baseline:auto;baseline-shift:baseline;text-anchor:start;white-space:normal;shape-padding:0;clip-rule:nonzero;display:inline;overflow:visible;visibility:visible;opacity:1;isolation:auto;mix-blend-mode:normal;color-interpolation:sRGB;color-interpolation-filters:linearRGB;solid-color:#000000;solid-opacity:1;vector-effect:none;fill:#000000;fill-opacity:1;fill-rule:nonzero;stroke:none;stroke-width:1;stroke-linecap:butt;stroke-linejoin:round;stroke-miterlimit:4;stroke-dasharray:none;stroke-dashoffset:0;stroke-opacity:1;paint-order:normal;color-rendering:auto;image-rendering:auto;shape-rendering:auto;text-rendering:auto;enable-background:accumulate"/><path d="m 12.994141,14.5 c -0.408292,0 -0.664804,0.296405 -0.800782,0.568359 -0.135977,0.271955 -0.199218,0.587944 -0.199218,0.931641 0,0.343697 0.06324,0.659686 0.199218,0.931641 0.135978,0.271954 0.39249,0.568359 0.800782,0.568359 0.408291,0 0.664804,-0.296405 0.800781,-0.568359 0.135977,-0.271955 0.199219,-0.587944 0.199219,-0.931641 0,-0.343697 -0.06324,-0.659686 -0.199219,-0.931641 C 13.658945,14.796405 13.402432,14.5 12.994141,14.5 Z" style="color:#000000;font-style:normal;font-variant:normal;font-weight:normal;font-stretch:normal;font-size:medium;line-height:normal;font-family:sans-serif;font-variant-ligatures:normal;font-variant-position:normal;font-variant-caps:normal;font-variant-numeric:normal;font-variant-alternates:normal;font-feature-settings:normal;text-indent:0;text-align:start;text-decoration:none;text-decoration-line:none;text-decoration-style:solid;text-decoration-color:#000000;letter-spacing:normal;word-spacing:normal;text-transform:none;writing-mode:lr-tb;direction:ltr;text-orientation:mixed;dominant-baseline:auto;baseline-shift:baseline;text-anchor:start;white-space:normal;shape-padding:0;clip-rule:nonzero;display:inline;overflow:visible;visibility:visible;opacity:1;isolation:auto;mix-blend-mode:normal;color-interpolation:sRGB;color-interpolation-filters:linearRGB;solid-color:#000000;solid-opacity:1;vector-effect:none;fill:#000000;fill-opacity:1;fill-rule:nonzero;stroke:none;stroke-width:1;stroke-linecap:round;stroke-linejoin:round;stroke-miterlimit:4;stroke-dasharray:none;stroke-dashoffset:0;stroke-opacity:1;paint-order:normal;color-rendering:auto;image-rendering:auto;shape-rendering:auto;text-rendering:auto;enable-background:accumulate"/><path d="m 18.990234,14.5 c -0.407169,10e-7 -0.665426,0.296095 -0.802734,0.568359 C 18.050192,15.340624 17.986328,15.65572 17.986328,16 c 0,0.34428 0.06386,0.659376 0.201172,0.931641 0.137308,0.272264 0.395565,0.568358 0.802734,0.568359 0.407171,0 0.665427,-0.296095 0.802735,-0.568359 0.137308,-0.272265 0.201172,-0.58736 0.201172,-0.931641 0,-0.344281 -0.06386,-0.659376 -0.201172,-0.931641 C 19.655661,14.796095 19.397405,14.5 18.990234,14.5 Z" style="color:#000000;font-style:normal;font-variant:normal;font-weight:normal;font-stretch:normal;font-size:medium;line-height:normal;font-family:sans-serif;font-variant-ligatures:normal;font-variant-position:normal;font-variant-caps:normal;font-variant-numeric:normal;font-variant-alternates:normal;font-feature-settings:normal;text-indent:0;text-align:start;text-decoration:none;text-decoration-line:none;text-decoration-style:solid;text-decoration-color:#000000;letter-spacing:normal;word-spacing:normal;text-transform:none;writing-mode:lr-tb;direction:ltr;text-orientation:mixed;dominant-baseline:auto;baseline-shift:baseline;text-anchor:start;white-space:normal;shape-padding:0;clip-rule:nonzero;display:inline;overflow:visible;visibility:visible;opacity:1;isolation:auto;mix-blend-mode:normal;color-interpolation:sRGB;color-interpolation-filters:linearRGB;solid-color:#000000;solid-opacity:1;vector-effect:none;fill:#000000;fill-opacity:1;fill-rule:nonzero;stroke:none;stroke-width:1;stroke-linecap:round;stroke-linejoin:round;stroke-miterlimit:4;stroke-dasharray:none;stroke-dashoffset:0;stroke-opacity:1;paint-order:normal;color-rendering:auto;image-rendering:auto;shape-rendering:auto;text-rendering:auto;enable-background:accumulate"/></g><text x="0" y="47" fill="#000000" font-size="5px" font-weight="bold" font-family="'Helvetica Neue', Helvetica, Arial-Unicode, Arial, Sans-serif">Created by Yusuf</text><text x="0" y="52" fill="#000000" font-size="5px" font-weight="bold" font-family="'Helvetica Neue', Helvetica, Arial-Unicode, Arial, Sans-serif">from the Noun Project</text></svg>